<?xml version="1.0" encoding="UTF-8"?>
<!DOCTYPE svg PUBLIC "-//W3C//DTD SVG 1.1//EN" "http://www.w3.org/Graphics/SVG/1.1/DTD/svg11.dtd">
<!-- Creator: CorelDRAW -->
<svg xmlns="http://www.w3.org/2000/svg" xml:space="preserve" width="100mm" height="100mm" version="1.1" style="shape-rendering:geometricPrecision; text-rendering:geometricPrecision; image-rendering:optimizeQuality; fill-rule:evenodd; clip-rule:evenodd"
viewBox="0 0 10000 10000"
 xmlns:xlink="http://www.w3.org/1999/xlink"
 xmlns:xodm="http://www.corel.com/coreldraw/odm/2003">
 <defs>
  <style type="text/css">
   <![CDATA[
    .fil0 {fill:#2B2B29;fill-rule:nonzero}
   ]]>
  </style>
 </defs>
 <g id="Camada_x0020_1">
  <metadata id="CorelCorpID_0Corel-Layer"/>
  <path class="fil0" d="M246.2 6542.8l0 -529.33 151.12 0c62.91,0 119.68,13.33 170.31,39.98 27.2,13.86 50.92,31.18 71.17,51.97 20.25,20.79 36.52,47.31 48.78,79.56 12.25,32.26 18.39,68.1 18.39,107.55 0,56.5 -14.13,104.21 -42.38,143.13 -51.71,71.43 -135.4,107.14 -251.08,107.14l-166.31 0zm150.32 -27.18c67.71,0 122.08,-19.99 163.12,-59.97 41.05,-39.98 61.57,-98.62 61.57,-175.91 0,-59.71 -16.26,-110.75 -48.78,-153.12 -32.51,-42.38 -74.62,-70.5 -126.33,-84.36 -46.38,0 -86.89,5.59 -121.54,16.79l0 449.37c17.06,4.8 41.05,7.2 71.96,7.2zm494.15 -225.49l0 252.67 -78.36 0 0 -529.33 172.71 0c53.85,0 97.96,11.99 132.34,35.98 34.38,23.99 51.58,55.58 51.58,94.76 0,39.18 -13.73,70.09 -41.19,92.75 -27.45,22.66 -64.63,38.24 -111.54,46.78l214.29 259.06 -92.76 11.2 -185.5 -263.87 -61.57 0zm0 -23.98l51.18 0c95.95,0 143.92,-37.85 143.92,-113.54 0,-12.81 -3.2,-27.2 -9.59,-43.19 -12.26,-33.58 -38.38,-55.7 -78.36,-66.37 -36.25,0 -71.97,4.54 -107.15,13.6l0 209.5zm428.59 272.66c-8.53,-8.53 -12.79,-18.93 -12.79,-31.19 0,-12.26 4.26,-22.79 12.79,-31.59 8.52,-8.79 18.92,-13.19 31.18,-13.19 12.27,0 22.79,4.4 31.59,13.19 8.8,8.8 13.19,19.33 13.19,31.59 0,12.26 -4.39,22.66 -13.19,31.19 -8.8,8.52 -19.32,12.79 -31.59,12.79 -12.26,0 -22.66,-4.27 -31.18,-12.79zm738.03 -223.89l77.56 0 0 210.29c-45.84,18.12 -101.02,27.19 -165.52,27.19 -78.36,0 -145.79,-20.79 -202.3,-62.37 -27.71,-20.79 -49.84,-48.11 -66.36,-81.96 -16.52,-33.84 -24.79,-71.3 -24.79,-112.34 0,-41.05 6.4,-77.96 19.19,-110.75 12.79,-32.78 29.45,-60.1 49.98,-81.96 20.52,-21.85 44.37,-40.51 71.56,-55.97 50.64,-28.78 106.34,-43.18 167.11,-43.18 23.46,0 48.78,2.67 75.97,8 27.19,5.34 47.97,10.93 62.37,16.79l-8 53.57c-71.97,-30.38 -131.67,-45.57 -179.11,-45.57 -53.84,13.86 -96.35,42.38 -127.53,85.55 -31.19,43.19 -46.78,95.96 -46.78,158.33 0,77.82 20.52,137.92 61.57,180.3 41.04,42.38 95.15,63.57 162.31,63.57 26.66,0 50.91,-2.67 72.77,-7.99l0 -201.5zm144.73 227.88l237.47 -542.12 12 0 237.48 542.12 -87.15 0 -59.98 -143.92 -237.48 0 -59.17 143.92 -43.17 0zm114.34 -174.31l212.69 0 -105.55 -259.07 -107.14 259.07zm452.57 174.31l0 -529.33 151.12 0c61.31,0 110.08,10.39 146.32,31.18 36.26,20.79 54.38,51.98 54.38,93.56 0,29.32 -10.26,54.77 -30.78,76.36 -20.52,21.59 -49.18,37.98 -85.96,49.18 48.51,9.05 85.16,25.45 109.94,49.17 24.79,23.72 37.19,49.71 37.19,77.96 0,28.26 -7.2,52.37 -21.59,72.36 -14.39,19.99 -32.79,35.32 -55.18,45.98 -45.31,22.39 -91.68,33.58 -139.13,33.58l-166.31 0zm77.56 -287.05l57.57 0c48.51,0 83.29,-10.8 104.35,-32.39 21.06,-21.58 31.58,-48.64 31.58,-81.16 0,-21.85 -7.32,-41.7 -21.99,-59.56 -14.66,-17.86 -37.18,-31.32 -67.57,-40.38 -36.24,0 -70.89,5.33 -103.94,15.99l0 197.5zm0 23.19l0 227.88c17.06,5.33 43.45,8 79.16,8 35.72,0 67.43,-9.87 95.15,-29.59 27.72,-19.72 41.58,-47.17 41.58,-82.35 0,-35.19 -15.2,-64.64 -45.58,-88.36 -30.38,-23.72 -66.9,-35.58 -109.54,-35.58l-60.77 0zm515.74 11.19l0 252.67 -78.36 0 0 -529.33 172.71 0c53.84,0 97.95,11.99 132.34,35.98 34.38,23.99 51.57,55.58 51.57,94.76 0,39.18 -13.73,70.09 -41.18,92.75 -27.46,22.66 -64.63,38.24 -111.55,46.78l214.3 259.06 -92.76 11.2 -185.5 -263.87 -61.57 0zm0 -23.98l51.17 0c95.95,0 143.93,-37.85 143.93,-113.54 0,-12.81 -3.2,-27.2 -9.6,-43.19 -12.25,-33.58 -38.38,-55.7 -78.36,-66.37 -36.24,0 -71.96,4.54 -107.14,13.6l0 209.5zm505.34 -252.68l0 529.33 -73.56 0 0 -529.33 73.56 0zm143.93 529.33l0 -529.33 320.63 0 -7.99 53.57 -148.73 -24.78c-26.11,0 -54.9,4.53 -86.35,13.59l0 194.31 177.51 0 0 30.38 -177.51 0 0 233.48 247.87 -24.79 -8 53.57 -317.43 0zm449.37 0l0 -529.33 78.36 0 0 486.16c32.53,9.59 58.64,14.39 78.36,14.39l144.73 -24.79 -9.6 53.57 -291.85 0zm871.55 -125.53l176.72 -403.8 81.56 0 29.58 529.33 -81.56 0 -21.59 -454.97 -3.19 0 -201.51 454.97 -11.19 0 -197.5 -436.58 -3.2 0 -21.59 436.58 -35.18 0 29.59 -529.33 74.36 0 184.7 403.8zm364.62 125.53l237.48 -542.12 11.99 0 237.48 542.12 -87.15 0 -59.98 -143.92 -237.47 0 -59.17 143.92 -43.18 0zm114.34 -174.31l212.69 0 -105.55 -259.07 -107.14 259.07zm530.93 -78.36l0 252.67 -78.36 0 0 -529.33 172.71 0c53.84,0 97.96,11.99 132.34,35.98 34.38,23.99 51.58,55.58 51.58,94.76 0,39.18 -13.73,70.09 -41.19,92.75 -27.45,22.66 -64.63,38.24 -111.54,46.78l214.29 259.06 -92.76 11.2 -185.5 -263.87 -61.57 0zm0 -23.98l51.18 0c95.95,0 143.92,-37.85 143.92,-113.54 0,-12.81 -3.2,-27.2 -9.59,-43.19 -12.26,-33.58 -38.38,-55.7 -78.36,-66.37 -36.25,0 -71.97,4.54 -107.15,13.6l0 209.5zm675.66 286.25c-82.62,0 -152.18,-22.39 -208.69,-67.17 -56.5,-44.77 -84.76,-109.01 -84.76,-192.7 0,-49.04 9.33,-92.75 27.99,-131.13 18.66,-38.39 43.18,-68.5 73.56,-90.36 61.31,-44.78 130.07,-67.17 206.29,-67.17 44.25,0 90.36,8 138.34,23.99l-8 54.37c-25.05,-10.65 -44.51,-18.65 -58.37,-23.98 -39.98,-14.4 -80.22,-21.59 -120.74,-21.59 -55.97,12.79 -99.02,40.52 -129.13,83.15 -30.12,42.65 -45.18,95.96 -45.18,159.93 0,78.36 20.52,138.72 61.57,181.1 41.04,42.38 95.15,63.57 162.31,63.57 67.17,0 117.28,-14.39 150.33,-43.17l0 43.97c-45.84,18.12 -101.02,27.19 -165.52,27.19zm502.15 -548.53c69.3,0 126.6,22.8 171.92,68.37 45.31,45.58 67.97,108.88 67.97,189.91 0,52.23 -9.07,97.94 -27.19,137.12 -18.13,39.18 -41.85,69.44 -71.17,90.76 -57.04,41.58 -119.94,62.37 -188.71,62.37 -68.76,0 -125.67,-23.06 -170.71,-69.17 -45.04,-46.11 -67.57,-109.68 -67.57,-190.7 0,-42.11 6.01,-80.09 18,-113.94 11.99,-33.85 27.72,-61.44 47.18,-82.76 19.45,-21.32 41.97,-39.18 67.56,-53.57 46.91,-25.59 97.81,-38.39 152.72,-38.39zm-160.72 447.78c13.86,23.46 32.52,41.71 55.97,54.77 23.46,13.06 50.51,19.59 81.16,19.59 30.66,0 57.97,-7.72 81.96,-23.19 23.98,-15.46 42.64,-35.71 55.98,-60.76 27.18,-50.12 40.77,-103.95 40.77,-161.52 0,-70.9 -14.13,-127.93 -42.37,-171.12 -31.46,-48.51 -83.43,-72.76 -155.93,-72.76 -51.7,18.13 -90.88,49.31 -117.54,93.55 -26.66,44.25 -39.98,94.36 -39.98,150.33 0,68.23 13.32,125.26 39.98,171.11zm901.96 99.95l-13.6 0 -350.22 -438.18 -3.2 0 0 429.38 -35.18 0 0 -529.33 59.17 0 304.65 384.61 3.19 0 0 -384.61 35.19 0 0 538.13zm143.92 -8.8l0 -529.33 151.12 0c62.91,0 119.68,13.33 170.31,39.98 27.2,13.86 50.92,31.18 71.17,51.97 20.26,20.79 36.52,47.31 48.78,79.56 12.25,32.26 18.39,68.1 18.39,107.55 0,56.5 -14.13,104.21 -42.38,143.13 -51.71,71.43 -135.4,107.14 -251.08,107.14l-166.31 0zm150.32 -27.18c67.71,0 122.08,-19.99 163.12,-59.97 41.05,-39.98 61.57,-98.62 61.57,-175.91 0,-59.71 -16.26,-110.75 -48.78,-153.12 -32.51,-42.38 -74.62,-70.5 -126.33,-84.36 -46.38,0 -86.89,5.59 -121.54,16.79l0 449.37c17.06,4.8 41.05,7.2 71.96,7.2zm415.79 27.18l0 -529.33 320.64 0 -8 53.57 -148.72 -24.78c-26.12,0 -54.9,4.53 -86.36,13.59l0 194.31 177.51 0 0 30.38 -177.51 0 0 233.48 247.88 -24.79 -8 53.57 -317.44 0zm506.95 -437.38c0,23.46 9.2,45.18 27.59,65.17 18.39,19.99 40.78,37.58 67.16,52.77 26.39,15.2 52.64,30.66 78.76,46.38 26.12,15.73 48.38,35.05 66.77,57.97 18.39,22.92 27.58,48.24 27.58,75.97 0,43.7 -16.12,79.42 -48.37,107.14 -32.25,27.72 -75.83,41.58 -130.74,41.58 -54.9,0 -109.27,-10.4 -163.11,-31.19l0 -37.58c54.37,27.19 100.61,40.78 138.73,40.78 38.11,0 67.83,-9.32 89.15,-27.98 21.33,-18.66 31.98,-44.51 31.98,-77.56 0,-22.39 -8.79,-42.78 -26.38,-61.17 -17.59,-18.4 -38.91,-34.39 -63.97,-47.98 -25.05,-13.59 -50.1,-27.58 -75.16,-41.97 -25.06,-14.4 -46.38,-32.66 -63.97,-54.78 -17.59,-22.12 -26.38,-48.91 -26.38,-80.36 0,-31.45 13.99,-60.77 41.98,-87.96 27.98,-27.18 69.7,-40.78 125.13,-40.78 36.25,0 82.09,8.27 137.53,24.79l-8 54.37c-71.96,-30.91 -133.53,-46.37 -184.7,-46.37 -27.72,13.33 -41.58,36.25 -41.58,68.76z"/>
  <path class="fil0" d="M2400.41 6945.19l2.76 0c11.6,0 18.23,18.23 18.23,28.73l0 129.85c-20.45,11.6 -43.1,13.81 -56.91,13.81 -101.67,0 -169.08,-88.4 -169.08,-174.04 0,-76.81 48.63,-162.45 159.69,-162.45 32.59,0 79.56,7.19 88.41,53.05l5.51 0 0 -58.57 -4.97 0c-4.97,0 -12.15,-2.22 -21.55,-4.43 -17.12,-3.86 -39.22,-9.39 -65.19,-9.39 -136.48,0 -198.92,95.59 -198.92,187.31 0,91.16 63,188.41 196.16,188.41 33.14,0 77.9,-5.52 103.87,-15.47l0 -148.08c0,-10.5 7.18,-28.73 18.23,-28.73l2.77 0 0 -5.52 -79.01 0 0 5.52zm204.98 186.76l0 -5.53c-11.6,0 -17.67,-19.34 -17.67,-30.39l0 -202.78 -55.26 17.69 0 4.97c17.68,0.55 18.78,14.37 18.78,27.07l0 153.05c0,11.05 -6.08,30.39 -17.67,30.39l0 5.53 71.82 0zm-69.06 -291.74c0,14.92 11.05,25.42 25.97,25.42 14.91,0 26.52,-10.5 26.52,-25.42 0,-14.92 -11.61,-26.52 -26.52,-26.52 -14.92,0 -25.97,11.6 -25.97,26.52zm350.3 149.18c0,-42.54 -27.07,-95.58 -96.14,-95.58 -40.33,0 -60.78,18.23 -71.28,30.39l0 -30.39 -55.25 17.68 0 4.97c17.68,0.56 18.79,14.36 18.79,27.08l0 152.49c0,11.05 -6.64,30.39 -17.69,30.39l0 5.53 71.84 0 0 -5.53c-11.05,0 -17.69,-19.34 -17.69,-30.39l0 -122.66c0,-30.94 33.16,-59.12 65.76,-59.12 33.15,0 65.75,25.42 65.75,79.01l0 102.77c0,11.05 -6.64,30.39 -17.68,30.39l0 5.53 71.27 0 0 -5.53c-11.05,0 -17.68,-19.34 -17.68,-30.39l0 -106.64zm293.94 30.95c0,-71.83 -35.35,-124.33 -109.4,-124.33 -81.77,0 -117.13,61.89 -117.13,117.15 0,85.63 58.56,122.66 124.32,122.66 41.44,0 64.65,-12.72 79.56,-21.55 7.18,-4.43 12.71,-7.74 17.13,-7.74l0 -41.44 -4.97 0c-8.84,32.6 -51.38,51.94 -83.98,51.94 -59.68,0 -91.17,-45.86 -97.25,-96.69l191.72 0zm-111.61 -106.09c50.28,0 75.7,43.65 77.36,86.19l-157.47 0c4.42,-41.43 29.28,-86.19 80.11,-86.19zm361.36 154.71l-5.53 0c-2.76,21 -29.83,48.07 -71.82,48.07 -59.13,0 -95.59,-54.7 -95.59,-109.4 0,-46.41 29.28,-92.83 90.06,-92.83 28.18,0 61.33,14.92 68.52,43.1l5.53 0 0 -41.99c-6.64,0 -12.72,-2.21 -19.35,-6.08 -11.6,-6.08 -27.62,-13.82 -54.7,-13.82 -79.56,0 -125.97,56.92 -125.97,119.9 0,67.97 54.7,119.91 130.4,119.91 30.93,0 48.61,-9.95 61.33,-17.13 6.62,-3.87 11.05,-6.64 17.12,-6.64l0 -43.09zm153.05 66.86c80.67,0 123.77,-60.23 123.77,-123.77 0,-67.97 -49.73,-116.04 -120.45,-116.04 -70.73,0 -123.77,49.18 -123.77,121.56 0,67.42 47.53,118.25 120.45,118.25zm-3.31 -221.57c62.44,0 92.27,55.81 92.27,104.42 0,46.97 -28.18,98.91 -83.43,98.91 -54.7,0 -90.06,-51.38 -90.06,-106.09 0,-47.51 28.17,-94.47 81.22,-97.24zm250.85 217.7l0 -5.53c-11.05,0 -17.68,-19.34 -17.68,-30.39l0 -332.07 -55.81 17.13 0 5.52c18.23,0.56 19.34,13.82 19.34,26.52l0 282.9c0,11.05 -6.62,30.39 -18.23,30.39l0 5.53 72.38 0zm169.07 3.87c80.67,0 123.77,-60.23 123.77,-123.77 0,-67.97 -49.73,-116.04 -120.45,-116.04 -70.73,0 -123.77,49.18 -123.77,121.56 0,67.42 47.52,118.25 120.45,118.25zm-3.32 -221.57c62.44,0 92.28,55.81 92.28,104.42 0,46.97 -28.18,98.91 -83.43,98.91 -54.7,0 -90.06,-51.38 -90.06,-106.09 0,-47.51 28.17,-94.47 81.21,-97.24zm291.2 320.46c-45.31,0 -80.68,-18.78 -80.68,-49.72 0,-11.05 5.53,-27.08 22.65,-40.34l28.19 4.97c59.67,10.5 112.16,18.24 112.16,43.66 0,24.31 -38.13,41.43 -82.32,41.43zm-38.69 -121.55c-33.14,-4.97 -56.91,-17.13 -56.91,-40.89 0,-8.29 2.22,-16.57 10.51,-21.55 19.88,15.48 46.96,23.77 74.03,23.77 59.67,0 107.2,-39.79 107.2,-86.75 0,-16.03 -6.64,-32.05 -11.61,-43.1l25.41 0 0 -19.89 -39.78 0c-19.33,-17.13 -48.62,-28.74 -79.56,-28.74 -59.12,0 -106.09,40.89 -106.09,93.94 0,17.13 4.42,30.94 17.13,45.86 -14.92,11.6 -21,25.96 -21,39.78 0,23.76 13.82,48.07 39.78,61.33 -26.52,17.13 -37.56,33.71 -37.56,53.04 0,43.1 51.38,65.76 107.18,65.76 56.92,0 116.04,-23.22 116.04,-73.49 0,-28.18 -16.58,-49.17 -75.7,-58.02l-69.07 -11.05zm22.66 -197.81c37.57,0 76.25,29.29 76.25,74.04 0,35.92 -24.87,66.31 -61.89,66.31 -34.25,0 -79.01,-26.52 -79.01,-75.7 0,-39.23 29.84,-64.65 64.65,-64.65l0 0zm254.17 216.6l0 -5.53c-11.61,0 -17.68,-19.34 -17.68,-30.39l0 -202.78 -55.26 17.69 0 4.97c17.69,0.55 18.79,14.37 18.79,27.07l0 153.05c0,11.05 -6.08,30.39 -17.68,30.39l0 5.53 71.83 0zm-69.07 -291.74c0,14.92 11.05,25.42 25.97,25.42 14.91,0 26.52,-10.5 26.52,-25.42 0,-14.92 -11.61,-26.52 -26.52,-26.52 -14.92,0 -25.97,11.6 -25.97,26.52zm307.75 228.75c0,-42.54 -44.75,-58.57 -86.18,-71.83 -33.16,-9.95 -64.1,-21.55 -64.1,-45.31 0,-17.13 15.47,-37.57 52.49,-37.57 28.73,0 59.12,12.71 72.38,37.02l4.42 0 0 -38.68c-8.29,0 -14.36,-1.65 -21,-5.52 -10.49,-4.98 -24.31,-11.06 -53.04,-11.06 -65.2,0 -89.5,29.84 -89.5,63.55 0,39.78 42.54,54.7 81.21,66.86 32.6,10.49 67.41,22.09 67.41,50.28 0,28.17 -33.7,39.78 -59.67,39.78 -35.91,0 -76.8,-31.49 -81.22,-51.94l-5.52 0 0 41.99c9.38,0 17.12,4.42 26.52,10.5 13.81,8.84 32.6,19.33 64.09,19.33 50.83,0 91.71,-29.83 91.71,-67.4zm163.56 -150.29l0 -18.78 -61.89 0 0 -98.35 -55.25 17.67 0 5.53c18.23,0.55 18.79,13.26 18.79,25.97l0 49.18 -30.94 0 0 18.78 30.94 0 0 125.43c0,41.99 0,87.85 53.59,87.85 21.55,0 30.39,-7.74 36.47,-12.71 2.21,-2.21 4.97,-3.32 8.29,-3.32l0 -40.33 -4.98 0c-3.86,20.44 -19.34,37.57 -34.81,37.57 -20.44,0 -22.1,-22.65 -22.1,-61.33l0 -133.16 61.89 0zm240.9 213.28l0 -5.53c-11.05,0 -18.23,-15.47 -18.23,-30.39l0 -109.4c0,-45.86 -13.26,-90.62 -95.04,-90.62 -34.81,0 -51.94,11.61 -62.99,16.03 -7.18,2.76 -11.6,6.63 -17.68,7.19l0 40.33 4.98 0c8.83,-19.34 28.73,-45.86 66.3,-45.86 22.65,0 66.3,10.5 69.06,67.96 -95.03,23.21 -150.83,45.86 -150.83,96.69 0,31.49 21.54,57.47 72.93,57.47 33.71,0 56.91,-11.05 75.14,-29.29l2.76 -2.76 0 28.18 53.6 0zm-59.68 -45.86c-15.47,17.13 -33.14,28.73 -57.46,28.73 -30.94,0 -51.94,-17.13 -51.94,-40.89 0,-43.1 74.05,-63.54 109.96,-72.38l5.52 -1.11 0 79.02 -6.08 6.63zm560.82 -14.37c-16.02,-13.26 -33.71,-27.62 -48.62,-41.44 16.02,-24.87 27.07,-61.88 33.7,-92.82 3.87,-18.23 7.19,-36.47 9.4,-55.81 1.65,-10.49 11.05,-18.23 18.23,-18.23l0 -5.53 -56.92 0 0 5.53c8.85,0 17.69,9.39 17.69,18.79 0,16.02 -6.08,77.9 -35.92,137.02 -35.36,-28.18 -72.38,-59.12 -106.08,-87.3 41.99,-24.31 56.9,-55.8 56.9,-82.88 0,-41.99 -30.38,-83.43 -86.18,-83.43 -46.42,0 -81.23,36.47 -81.23,79.01 0,30.94 19.89,59.12 55.25,88.41 -60.22,28.73 -83.98,62.43 -83.98,113.26 0,47.52 39.23,90.62 105.53,90.62 51.39,0 92.28,-21.55 132.06,-75.15l54.69 43.1c19.34,14.92 39.24,27.08 67.41,27.08l30.95 0 0 -5.53c-10.5,0 -24.31,-8.84 -37.03,-17.68 -7.18,-4.97 -14.36,-11.05 -22.09,-17.68l-23.76 -19.34zm-244.77 -228.75c-1.66,-3.86 -1.1,-7.18 -1.1,-11.05 0,-26.52 15.46,-48.62 39.78,-48.62 44.2,0 65.74,37.02 65.74,71.83 0,22.65 -16.02,50.28 -44.75,61.89 -27.07,-22.66 -54.7,-48.07 -59.67,-74.05zm58.56 274.61c-49.17,-1.66 -86.74,-43.09 -86.74,-82.33 0,-32.6 21,-66.3 65.75,-87.85l123.77 102.78c-29.29,39.78 -66.86,67.4 -102.78,67.4zm635.97 -355.83c-121,0 -190.62,96.69 -190.62,191.73 0,95.03 69.62,183.99 182.89,183.99 106.08,0 193.38,-78.46 193.38,-188.96 0,-99.46 -71.27,-186.76 -185.65,-186.76zm-0.55 356.38c-87.85,0 -153.05,-91.17 -153.05,-172.38 0,-75.15 55.26,-164.66 146.42,-164.66 93.93,0 155.26,92.83 155.26,174.05 0,73.49 -49.73,158.57 -148.63,162.99zm353.06 -222.12c-21,0 -46.96,10.5 -63.54,27.08l0 -158.03 -55.25 17.14 0 5.52c17.68,0.56 18.79,13.82 18.79,26.52l0 281.79c0,11.05 -6.64,30.39 -17.69,30.39l0 5.53 54.15 0 0 -25.42c13.26,16.03 37.57,29.29 65.2,29.29 75.69,0 114.93,-61.89 114.93,-122.12 0,-59.12 -37.57,-117.69 -116.59,-117.69zm5.53 221.02c-32.6,0 -69.07,-25.97 -69.07,-68.52l0 -68.51c0,-35.36 29.84,-64.65 61.33,-64.65 54.71,0 85.09,53.05 85.09,105.54 0,46.96 -24.86,92.82 -77.35,96.14l0 0zm339.8 -48.07c0,-42.54 -44.75,-58.57 -86.19,-71.83 -33.15,-9.95 -64.09,-21.55 -64.09,-45.31 0,-17.13 15.47,-37.57 52.49,-37.57 28.73,0 59.12,12.71 72.38,37.02l4.42 0 0 -38.68c-8.29,0 -14.36,-1.65 -21,-5.52 -10.49,-4.98 -24.31,-11.06 -53.04,-11.06 -65.2,0 -89.5,29.84 -89.5,63.55 0,39.78 42.54,54.7 81.21,66.86 32.6,10.49 67.41,22.09 67.41,50.28 0,28.17 -33.71,39.78 -59.67,39.78 -35.91,0 -76.8,-31.49 -81.22,-51.94l-5.53 0 0 41.99c9.39,0 17.13,4.42 26.53,10.5 13.81,8.84 32.6,19.33 64.09,19.33 50.83,0 91.71,-29.83 91.71,-67.4zm163.55 -150.29l0 -18.78 -61.88 0 0 -98.35 -55.25 17.67 0 5.53c18.23,0.55 18.79,13.26 18.79,25.97l0 49.18 -30.94 0 0 18.78 30.94 0 0 125.43c0,41.99 0,87.85 53.59,87.85 21.55,0 30.39,-7.74 36.47,-12.71 2.2,-2.21 4.97,-3.32 8.28,-3.32l0 -40.33 -4.97 0c-3.86,20.44 -19.34,37.57 -34.81,37.57 -20.44,0 -22.1,-22.65 -22.1,-61.33l0 -133.16 61.88 0zm263.56 101.67c0,-71.83 -35.36,-124.33 -109.4,-124.33 -81.77,0 -117.14,61.89 -117.14,117.15 0,85.63 58.57,122.66 124.33,122.66 41.43,0 64.64,-12.72 79.56,-21.55 7.18,-4.43 12.7,-7.74 17.13,-7.74l0 -41.44 -4.98 0c-8.83,32.6 -51.38,51.94 -83.98,51.94 -59.68,0 -91.17,-45.86 -97.25,-96.69l191.73 0zm-111.61 -106.09c50.28,0 75.7,43.65 77.35,86.19l-157.47 0c4.43,-41.43 29.29,-86.19 80.12,-86.19zm273.5 4.42l0 -18.78 -61.88 0 0 -98.35 -55.25 17.67 0 5.53c18.23,0.55 18.79,13.26 18.79,25.97l0 49.18 -30.94 0 0 18.78 30.94 0 0 125.43c0,41.99 0,87.85 53.59,87.85 21.55,0 30.39,-7.74 36.47,-12.71 2.2,-2.21 4.97,-3.32 8.28,-3.32l0 -40.33 -4.97 0c-3.86,20.44 -19.34,37.57 -34.81,37.57 -20.44,0 -22.1,-22.65 -22.1,-61.33l0 -133.16 61.88 0zm192.84 -12.16c-10.5,-4.97 -29.28,-10.5 -39.78,-10.5 -28.73,0 -44.76,17.14 -57.47,33.16l0 -33.16 -55.8 16.58 0 4.43c12.71,2.75 19.34,14.91 19.34,25.41l0 154.15c0,11.05 -6.63,29.84 -17.68,29.84l0 5.53 71.83 0 0 -5.53c-11.06,0 -17.69,-18.79 -17.69,-29.84l0 -143.65c12.16,-12.16 34.26,-29.29 50.29,-29.29 12.7,0 21.54,1.66 30.38,16.58l16.58 -33.71zm234.27 225.44l0 -5.53c-11.05,0 -18.23,-15.47 -18.23,-30.39l0 -109.4c0,-45.86 -13.26,-90.62 -95.04,-90.62 -34.81,0 -51.94,11.61 -62.99,16.03 -7.18,2.76 -11.6,6.63 -17.68,7.19l0 40.33 4.98 0c8.83,-19.34 28.73,-45.86 66.3,-45.86 22.65,0 66.3,10.5 69.06,67.96 -95.03,23.21 -150.83,45.86 -150.83,96.69 0,31.49 21.54,57.47 72.93,57.47 33.7,0 56.91,-11.05 75.14,-29.29l2.76 -2.76 0 28.18 53.6 0zm-59.68 -45.86c-15.47,17.13 -33.14,28.73 -57.46,28.73 -30.94,0 -51.94,-17.13 -51.94,-40.89 0,-43.1 74.05,-63.54 109.96,-72.38l5.52 -1.11 0 79.02 -6.08 6.63z"/>
  <g id="_2233261619568">
   <path class="fil0" d="M6906.76 2794.91c-104.96,-182.61 -286.64,-320.34 -485.37,-388.4 -279.31,-148.38 -593.39,-95.36 -874.3,17.45 -272.92,113.75 -597.13,158.1 -781.47,413.98 -112.16,127.06 -220.31,287.43 -332.2,413.7 -163.43,170.37 -347.64,322.61 -490.02,513.35 -172.49,326.2 -532.93,449.93 -868.99,541.57 282.78,-70.33 595.8,-144.78 793.33,-376.14 99.23,-146.65 213.91,-280.12 343.78,-400.39 127.07,-120.95 267.32,-239.62 372.15,-382.95 146.52,-171.69 273.46,-392.66 485.77,-488.56 326.6,-110.29 653.06,-283.84 1001.77,-298.49 220.58,31.3 461.13,109.21 633.36,255.06 249.21,185.28 246.14,431.96 -113.63,344.46 -10.51,-96.44 -106.29,-216.19 -210.44,-153.31 -43.29,-72.07 -59.55,-167.97 -24.52,-246.55 -39.02,78.19 -27.57,176.22 14.26,251.34 -13.45,6.53 -26.64,13.71 -39.43,21.17 -27.83,-145.18 -258.26,-271.58 -337.91,-98.69 -12,-14.79 -25.98,-27.04 -42.09,-37.03 -15.33,-61.4 -5.47,-125.07 -3.74,-187.94 -17.04,56.6 -30.37,116.28 -21.97,175.82 -83.38,-28.5 -186.21,22.24 -224.17,99.37 -52.62,-45.29 -132.13,-42.63 -191.41,-12.79 -21.84,-46.75 -54.74,-94.57 -103.75,-115.08 37.43,36.63 62.19,81.11 84.04,127.73 -33.7,30.23 -66.47,68.07 -74.32,114.42 -89.38,-21.04 -172.49,39.42 -206.72,119.74 -15.59,-56.34 -41.17,-107.76 -76.59,-154.38 35.42,100.17 76.18,188.08 43.41,293.43 -130.52,53.55 -267.59,98.71 -410.23,97.51 270.11,40.88 517.06,-124.67 780.92,-138.13 33.04,0.67 65.54,-3.6 97.24,-12.79 65.8,38.63 176.35,8.13 187.28,-76.58 65.26,35.82 180.34,24.51 207.38,-54.48 30.77,26.5 66.6,39.43 107.36,38.5 -63.27,98.29 -4.13,218.57 79.25,283.04 -172.49,119.21 -393.86,107.62 -579.67,196.47 -458.47,274.38 -450.07,940.49 -1082.23,1054.77 398.26,-45.28 633.48,-389.86 807.44,-714.99 30.77,73.38 73.93,149.98 63.13,230.96 -49.95,193.27 -103.22,388.13 -80.85,590.99 -199.39,269.86 -510,385.61 -827.68,449 -389.2,102.3 -764.02,255.08 -1124.58,432.37 374.15,-143.72 748.97,-283.98 1138.43,-380.95 309.16,-61 622.97,-170.62 816.5,-434.61 11.86,119.34 -37.42,233.76 -30.77,352.43 55.81,-201.39 80.59,-406.38 74.46,-615.37 16.52,-220.44 152.37,-447 -16.65,-644.27 115.08,-224.84 336.46,-337.52 577.54,-377.21 -46.62,61.8 -90.31,142.52 -71.52,222.17 17.18,-90.04 71.52,-162.24 121.47,-236.56 55.14,-15.85 108.16,-37.03 159.04,-63.66 -38.09,129.59 46.35,271.98 173.95,309.28 -102.16,-75.66 -169.69,-191.41 -153.98,-320.48 18.79,-10.92 36.76,-23.04 53.82,-36.49 16.24,11.46 35.43,24.37 56.21,23.17 -114.28,-35.42 -231.1,-304.21 -60.61,-325.66 -155.83,34.77 -7.72,302.62 90.84,153.44 -70.06,87.52 -173.29,-23.3 -128,-105.35 50.75,-83.12 189.54,36.22 128,105.35 29.84,-25.31 29.17,-70.2 6.67,-100.17 133.99,78.6 231.75,112.69 197.66,294.77 -72.06,81.52 -138.13,208.86 -41.56,299.7 -97.37,77.65 -186.88,203.26 -148.92,333.92 -119.73,57.01 -255.33,38.49 -383.87,43.82 128.8,16.52 270.26,36.1 390.4,-26.9 2.53,5.33 5.46,10.39 8.79,15.31 -49.68,82.19 -67.26,196.33 -6.52,279.85 16.78,259.86 35.03,520 105.23,771.34 -8.54,-247.75 -26.38,-498.02 -76.87,-740.7 205.79,167.29 338.99,-87.79 291.04,-276.92 65.66,-117.88 111.89,-250.54 98.57,-386.53 65.39,-90.31 42.49,-212.19 66.33,-312.36 39.16,-131.06 -19.98,-257.6 -114.55,-348.97 114.68,11.85 234.16,-90.31 185.28,-209.92zm-1534.03 320.07c-19.84,-3.05 -40.76,-8.39 -55.68,-23.04 3.74,5.33 8.13,9.86 13.32,13.72 -44.35,11.72 -87.91,25.58 -130.67,41.83 3.07,-15.06 6.27,-29.71 10.53,-43.96 26.9,-125.87 133.86,-197.67 258.4,-157.97 -16.12,0.66 -30.1,6.26 -42.22,16.92 26.51,-16.53 60.74,-11.33 88.44,-1.07 102.42,78.72 -196.73,109.49 -88.44,1.07 -121.48,98.42 168.76,120.14 116.55,3.46 92.04,106.55 -80.45,170.89 -170.23,149.04zm210.59 -35.56c3.46,-5.59 6.52,-11.45 8.92,-17.45 4.53,5.46 9.46,10.52 14.65,15.19 -7.86,1.06 -15.72,1.86 -23.57,2.26zm173.28 -1.06c-51.28,31.96 -118.41,12.65 -160.37,-26.91 40.63,-107.49 -75.79,-150.65 -162.1,-151.45 88.71,-214.97 336.46,-82.98 360.7,99.5l0.13 0.14c2.66,15.84 0.4,31.03 -6.65,45.55 -7.07,14.39 -17.59,25.44 -31.71,33.17zm249.75 -136.93c-4.8,79.52 -115.22,92.04 -173.82,65.66 -1.47,-85.37 -55.42,-156.63 -115.76,-210.71 50.09,-84.72 199.01,-122.68 254.01,-24.11 3.86,5.59 7.07,11.32 9.73,17.44 17.98,49.02 26.64,99.5 25.97,151.72l-0.13 0zm102.96 30.36c-27.57,-8.11 -48.75,-24.37 -63.67,-49.01 -0.8,-47.55 -8.52,-94.03 -23.04,-139.33 29.17,-180.74 258.26,-67.26 288.1,60.22 -12.65,7.58 -25.17,15.04 -38.09,21.71 -0.8,-36.23 -5.46,-73.8 -21.98,-106.3 32.9,100.97 -8.66,260.27 -141.32,212.71zm309.28 91.51c-39.03,-21.71 -126.8,-88.44 -170.49,-97.36 18.65,-26.11 22.25,-54.35 24.11,-83.38 61.93,-14.52 121.34,-68.86 186.6,-54.48 106.83,43.82 82.06,204.85 -4.12,258.8l-36.1 -23.58zm85.25 56.35c-13.19,-10.39 -27.85,-18.65 -41.29,-27.84 13.44,-8.39 25.57,-18.51 36.36,-30.37 10.65,-11.72 19.45,-24.77 26.5,-39.16 7.06,-14.26 11.86,-29.17 14.66,-44.89 2.79,-15.72 3.33,-31.44 1.73,-47.28 23.44,65.93 3.86,139.32 -27.18,199.53 -3.32,-3.6 -6.92,-6.93 -10.65,-9.99l-0.13 0zm142.38 1031.87c-31.17,352.97 -407.45,151.58 -275.98,-115.75 67.8,64.61 197.93,118.95 278.64,46.23 1.2,23.17 0.27,46.48 -2.66,69.52zm82.85 -351.77c-27.04,87.51 -60.2,184.61 -119.34,254.54 -289.31,65.26 -282.25,-239.76 -102.96,-386.14 63.66,54.47 164.36,62.74 236.83,19.58 -1.74,37.69 -6.53,74.99 -14.53,112.02zm-31.17 -780.53c117.08,120.28 108.42,267.19 72.46,419.16 -15.84,75.12 6.13,185.82 -82.31,218.05 -182.35,53.95 -272.66,-137.06 -162.5,-275.32 44.49,-65.93 45.69,-152.77 8.52,-224.17 37.96,-51.94 57.54,-110.15 58.48,-174.62 30.37,11.06 61.53,18.12 93.76,20.91 4,5.33 7.87,10.66 11.59,15.99zm0 0z"/>
   <path class="fil0" d="M5645.65 4038.57c142.78,2 284.65,-54.34 426.09,-18.65 -181.94,-78.99 -382,45.29 -566.75,-10.92 41.69,25.04 92.97,28.77 140.66,29.57zm0 0z"/>
   <path class="fil0" d="M6038.05 4084.79c-173.96,-17.18 -349.78,-13.85 -521.07,23.44 198.73,-20.91 398.93,1.87 595.4,-24.77 -24.78,2.4 -49.56,2.79 -74.33,1.33zm0 0z"/>
   <path class="fil0" d="M5970.51 2901.34c-7.05,-41.57 -46.88,-79.65 -90.3,-63.67 55.27,-11.99 90.84,54.61 80.32,100.82 -84.45,79.92 -180.35,-45.95 -80.32,-100.82 -49.82,6.53 -60.87,78.85 -39.29,115.48 38.89,44.89 162.1,21.45 129.59,-51.81zm0 0z"/>
   <path class="fil0" d="M6190.02 2941.83c59.94,-31.03 19.58,-142.79 -43.02,-141.32 64.2,4.92 93.38,138.92 11.06,133.2 -124.4,20.78 -119.75,-124.68 -11.06,-133.34 -154.1,12.92 -106.82,190.35 43.02,141.46zm0 0z"/>
   <path class="fil0" d="M5767.92 2931.04c-23.83,-29.43 -67.13,-45.55 -102.42,-28.9 65.93,-25.31 160.63,81.38 67.92,110.95 -71.38,43.95 -147.05,-75.79 -67.92,-110.95 -67.14,14.78 -43.56,120.27 15.04,130.52 57.94,13.73 142.66,-43.81 87.38,-101.62zm0 0z"/>
  </g>
 </g>
</svg>
