<?xml version="1.0" encoding="UTF-8"?>
<!DOCTYPE svg PUBLIC "-//W3C//DTD SVG 1.1//EN" "http://www.w3.org/Graphics/SVG/1.1/DTD/svg11.dtd">
<!-- Creator: CorelDRAW -->
<svg xmlns="http://www.w3.org/2000/svg" xml:space="preserve" width="100mm" height="50mm" version="1.1" style="shape-rendering:geometricPrecision; text-rendering:geometricPrecision; image-rendering:optimizeQuality; fill-rule:evenodd; clip-rule:evenodd"
viewBox="0 0 10000 5000"
 xmlns:xlink="http://www.w3.org/1999/xlink"
 xmlns:xodm="http://www.corel.com/coreldraw/odm/2003">
 <defs>
  <style type="text/css">
   <![CDATA[
    .str0 {stroke:#373435;stroke-width:68.05;stroke-miterlimit:22.9256}
    .fil3 {fill:none}
    .fil2 {fill:#373435}
    .fil1 {fill:#373435;fill-rule:nonzero}
    .fil0 {fill:#3E4095;fill-rule:nonzero}
   ]]>
  </style>
 </defs>
 <g id="Camada_x0020_1">
  <metadata id="CorelCorpID_0Corel-Layer"/>
  <g id="_2021926531328">
   <path class="fil0" d="M5639.6 3536.33l-524.72 0 -120.48 -890.9c-8.65,-62.93 -16.34,-132.57 -23.52,-209.9 -6.74,-76.85 -13.45,-160.88 -18.76,-251.65 -13.41,87.4 -38.86,195.94 -77.26,326.6 -8.61,26.89 -14.87,47.03 -18.71,60.51l-279.37 965.34 -374.45 0 -279.4 -965.34c-3.84,-13.48 -9.59,-33.62 -17.29,-60.51 -39.38,-130.66 -64.8,-238.73 -77.29,-325.17 -5.28,77.8 -12.01,155.13 -19.67,231.5 -7.22,76.38 -16.34,152.72 -26.38,228.62l-121 890.9 -521.82 0 317.78 -2060.39 555.42 0 310.61 1062.38c1.91,7.69 5.75,19.7 11.5,36.99 28.83,94.59 47.04,175.76 54.73,243.49 3.85,-36.99 10.59,-77.33 21.14,-121.98 10.07,-44.69 24.5,-98.46 42.24,-161.39l313.46 -1059.49 556.85 0 316.39 2060.39z"/>
   <path class="fil1" d="M8782.28 1475.94c70.86,0 139.99,18.15 207.55,54.62 67.43,36.31 120.12,88.46 157.76,156.11 37.61,67.8 56.52,138.5 56.52,211.83 0,72.79 -18.53,142.92 -55.76,209.96 -37.04,67.27 -88.98,119.42 -156.02,156.49 -67,37.26 -137.1,55.78 -210.05,55.78 -73.11,0 -143.19,-18.52 -210.24,-55.78 -67.01,-37.07 -119.17,-89.22 -156.37,-156.49 -37.24,-67.04 -55.97,-137.17 -55.97,-209.96 0,-73.33 18.92,-144.03 56.73,-211.83 37.99,-67.65 90.68,-119.8 158.11,-156.11 67.58,-36.47 136.74,-54.62 207.74,-54.62zm0 69.92c-59.38,0 -117.25,15.27 -173.36,45.65 -56.16,30.39 -100.08,73.95 -131.79,130.49 -31.68,56.54 -47.52,115.41 -47.52,176.5 0,60.95 15.65,119.23 46.77,175.01 31.11,55.78 74.68,99.35 130.62,130.49 55.92,31.14 114.35,46.82 175.28,46.82 60.74,0 119.17,-15.68 175.12,-46.82 55.94,-31.14 99.48,-74.71 130.43,-130.49 30.92,-55.78 46.39,-114.06 46.39,-175.01 0,-61.09 -15.84,-119.96 -47.34,-176.5 -31.52,-56.54 -75.44,-100.1 -131.79,-130.49 -56.32,-30.38 -114,-45.65 -172.81,-45.65zm135.42 420.66l68.7 20.63c-11.24,46.63 -34.94,84.08 -71.19,111.78 -36.5,27.89 -80.61,41.84 -132.36,41.84 -65.69,0 -118.96,-21.2 -160.01,-63.82 -41.05,-42.6 -61.49,-101.44 -61.49,-176.91 0,-49.28 9.37,-92.06 28.08,-128.37 18.52,-36.48 45.25,-63.8 79.61,-82.32 34.58,-18.55 74.11,-27.7 118.41,-27.7 49.64,0 90.88,11.83 123.75,35.71 32.82,23.89 55.19,56.35 67.21,97.24l-66.45 17.2c-11.27,-28.09 -27.7,-49.67 -49.66,-64.59 -21.96,-15.08 -47.53,-22.53 -77.15,-22.53 -42.95,0 -78.47,15.28 -106.36,45.85 -27.87,30.57 -41.81,74.52 -41.81,131.41 0,57.13 13.18,100.3 39.51,129.54 26.37,29.22 60.35,43.95 102.16,43.95 33.63,0 63.2,-9.75 88.63,-29.43 25.37,-19.47 42.19,-46.04 50.42,-79.48z"/>
   <path class="fil2" d="M1338.12 2600.66c-3.46,-30.86 -5.24,-62.42 -5.24,-94.51 0,-366.4 232.69,-663.42 519.72,-663.42 221.08,0 409.93,176.22 485.05,424.66l-999.53 333.27zm162.66 877.48c110.12,37.29 228.53,57.57 351.82,57.57 376.09,0 706.65,-188.74 895.97,-473.64 66.69,-100.38 115.87,-212.71 143.3,-332.94l-650.13 216.77c-95.21,137.2 -234.26,223.67 -389.14,223.67 -59.98,0 -117.58,-12.97 -171.18,-36.84 -111.64,-49.67 -205.9,-146.6 -268.15,-271.99l958.32 -319.52 535.09 -178.42c-13.13,-91.11 -38.57,-178.4 -74.68,-260.25 -162.27,-368.01 -539.71,-625.96 -979.4,-625.96 -587.78,0 -1064.31,460.95 -1064.31,1029.56 0,91.93 12.45,181.07 35.83,265.88 24.36,88.43 60.6,172.15 106.94,249.5 63.98,106.87 147.28,201.54 245.23,279.63 95.6,76.2 205.2,136.56 324.49,176.95l0 0.03z"/>
   <path class="fil2" d="M6491.4 2600.66c-3.46,-30.86 -5.25,-62.42 -5.25,-94.51 0,-366.4 232.69,-663.42 519.72,-663.42 221.09,0 409.93,176.22 485.05,424.66l-999.52 333.27zm162.65 877.48c110.12,37.29 228.53,57.57 351.82,57.57 376.1,0 706.65,-188.74 895.97,-473.64 66.69,-100.38 115.87,-212.71 143.31,-332.94l-650.14 216.77c-95.21,137.2 -234.26,223.67 -389.14,223.67 -59.98,0 -117.58,-12.97 -171.18,-36.84 -111.64,-49.67 -205.9,-146.6 -268.15,-271.99l958.32 -319.52 535.09 -178.42c-13.12,-91.11 -38.57,-178.4 -74.68,-260.25 -162.27,-368.01 -539.71,-625.96 -979.4,-625.96 -587.78,0 -1064.31,460.95 -1064.31,1029.56 0,91.93 12.45,181.07 35.83,265.88 24.36,88.43 60.6,172.15 106.94,249.5 63.98,106.87 147.29,201.54 245.24,279.63 95.6,76.2 205.2,136.56 324.48,176.95l0 0.03z"/>
   <polygon class="fil3 str0" points="5315.18,1475.94 5631.61,3536.33 4851.59,3536.33 4794.39,3113.1 4671.87,3536.33 4107.25,3536.33 3983.18,3107.71 3924.96,3536.33 3147.37,3536.33 3465.17,1475.94 4198.8,1475.94 4388.62,2125.24 4580.71,1475.94 "/>
  </g>
 </g>
</svg>
