<?xml version="1.0" encoding="UTF-8"?>
<!DOCTYPE svg PUBLIC "-//W3C//DTD SVG 1.1//EN" "http://www.w3.org/Graphics/SVG/1.1/DTD/svg11.dtd">
<!-- Creator: CorelDRAW -->
<svg xmlns="http://www.w3.org/2000/svg" xml:space="preserve" width="100mm" height="100mm" version="1.1" style="shape-rendering:geometricPrecision; text-rendering:geometricPrecision; image-rendering:optimizeQuality; fill-rule:evenodd; clip-rule:evenodd"
viewBox="0 0 10000 10000"
 xmlns:xlink="http://www.w3.org/1999/xlink"
 xmlns:xodm="http://www.corel.com/coreldraw/odm/2003">
 <defs>
  <style type="text/css">
   <![CDATA[
    .fil0 {fill:white;fill-rule:nonzero}
   ]]>
  </style>
 </defs>
 <g id="Camada_x0020_1">
  <metadata id="CorelCorpID_0Corel-Layer"/>
  <g id="_2535288447728">
   <path class="fil0" d="M9867.54 2123.71c-267.64,-465.61 -730.85,-816.76 -1237.55,-990.29 -712.17,-378.34 -1512.97,-243.16 -2229.22,44.47 -695.87,290.03 -1522.49,403.13 -1992.51,1055.53 -285.96,323.97 -561.71,732.87 -847,1054.82 -416.7,434.38 -886.37,822.55 -1249.41,1308.88 -439.81,831.7 -1358.81,1147.19 -2215.65,1380.86 721,-179.33 1519.09,-369.16 2022.73,-959.06 253.03,-373.92 545.43,-714.22 876.55,-1020.88 323.99,-308.38 681.59,-610.96 948.87,-976.4 373.58,-437.76 697.23,-1001.16 1238.56,-1245.68 832.74,-281.2 1665.12,-723.72 2554.22,-761.06 562.4,79.79 1175.74,278.46 1614.87,650.33 635.42,472.41 627.6,1101.36 -289.7,878.25 -26.82,-245.87 -271.02,-551.2 -536.58,-390.89 -110.38,-183.74 -151.82,-428.26 -62.5,-628.63 -99.51,199.36 -70.3,449.3 36.36,640.84 -34.31,16.65 -67.93,34.98 -100.54,54 -70.97,-370.18 -658.5,-692.47 -861.58,-251.65 -30.59,-37.69 -66.23,-68.95 -107.33,-94.4 -39.07,-156.56 -13.93,-318.89 -9.52,-479.2 -43.46,144.33 -77.43,296.49 -56.02,448.29 -212.6,-72.67 -474.78,56.71 -571.57,253.35 -134.16,-115.46 -336.9,-108.68 -488.03,-32.61 -55.69,-119.19 -139.59,-241.11 -264.55,-293.41 95.44,93.39 158.59,206.81 214.28,325.68 -85.91,77.08 -169.46,173.55 -189.49,291.73 -227.89,-53.65 -439.8,100.51 -527.07,305.29 -39.74,-143.63 -104.96,-274.73 -195.29,-393.6 90.33,255.4 194.25,479.54 110.71,748.16 -332.8,136.53 -682.28,251.67 -1045.99,248.62 688.72,104.24 1318.36,-317.88 1991.14,-352.19 84.23,1.7 167.09,-9.18 247.92,-32.61 167.76,98.49 449.65,20.72 477.49,-195.26 166.41,91.34 459.84,62.48 528.78,-138.9 78.44,67.56 169.81,100.52 273.73,98.15 -161.32,250.61 -10.54,557.29 202.07,721.67 -439.81,303.94 -1004.23,274.39 -1478,500.93 -1168.95,699.59 -1147.54,2397.98 -2759.35,2689.36 1015.45,-115.46 1615.19,-994.03 2058.72,-1823.03 78.46,187.12 188.5,382.41 160.97,588.89 -127.35,492.79 -263.19,989.62 -206.13,1506.86 -508.41,688.04 -1300.38,983.18 -2110.35,1144.82 -992.34,260.82 -1948.02,650.36 -2867.34,1102.4 953.98,-366.45 1909.63,-724.07 2902.66,-971.3 788.24,-155.55 1588.38,-435.04 2081.83,-1108.14 30.22,304.28 -95.43,596.01 -78.46,898.6 142.3,-513.48 205.47,-1036.14 189.86,-1569.01 42.1,-562.06 388.5,-1139.72 -42.45,-1642.7 293.41,-573.27 857.85,-860.56 1472.54,-961.77 -118.87,157.57 -230.26,363.39 -182.36,566.47 43.81,-229.57 182.36,-413.66 309.71,-603.15 140.6,-40.43 275.78,-94.42 405.5,-162.33 -97.11,330.43 118.2,693.48 443.53,788.57 -260.48,-192.9 -432.65,-488.03 -392.59,-817.11 47.9,-27.85 93.73,-58.75 137.22,-93.04 41.41,29.2 90.32,62.13 143.31,59.08 -291.39,-90.33 -589.24,-775.67 -154.54,-830.35 -397.33,88.65 -19.68,771.59 231.62,391.23 -178.63,223.14 -441.83,-59.42 -326.36,-268.62 129.4,-211.93 483.27,92.36 326.36,268.62 76.07,-64.53 74.37,-178.98 17,-255.39 341.63,200.39 590.91,287.31 503.98,751.56 -183.74,207.84 -352.19,532.53 -105.96,764.14 -248.27,197.98 -476.49,518.25 -379.7,851.39 -305.29,145.36 -651.02,98.15 -978.77,111.74 328.41,42.11 689.09,92.03 995.42,-68.59 6.44,13.59 13.92,26.49 22.4,39.04 -126.66,209.55 -171.48,500.59 -16.62,713.53 42.79,662.57 89.31,1325.85 268.29,1966.69 -21.75,-631.69 -67.24,-1269.81 -195.97,-1888.57 524.71,426.53 864.31,-223.82 742.07,-706.05 167.41,-300.57 285.27,-638.82 251.3,-985.56 166.75,-230.26 108.34,-541.01 169.14,-796.4 99.85,-334.16 -50.96,-656.8 -292.08,-889.77 292.4,30.21 597.03,-230.27 472.42,-535.24zm-3911.33 816.09c-50.59,-7.8 -103.92,-21.39 -141.96,-58.76 9.52,13.59 20.72,25.14 33.97,34.98 -113.1,29.9 -224.15,65.22 -333.17,106.66 7.82,-38.38 15.98,-75.75 26.83,-112.09 68.6,-320.93 341.31,-503.98 658.85,-402.78 -41.1,1.71 -76.74,15.96 -107.65,43.15 67.59,-42.14 154.86,-28.89 225.5,-2.72 261.15,200.71 -501.62,279.15 -225.5,2.72 -309.74,250.95 430.29,306.33 297.16,8.83 234.68,271.67 -205.13,435.71 -434.03,380.01zm536.94 -90.68c8.83,-14.25 16.62,-29.2 22.74,-44.49 11.55,13.93 24.13,26.83 37.37,38.72 -20.05,2.72 -40.08,4.76 -60.11,5.77zm441.83 -2.71c-130.76,81.5 -301.92,32.26 -408.9,-68.6 103.57,-274.07 -193.24,-384.1 -413.31,-386.15 226.19,-548.12 857.87,-211.57 919.66,253.69l0.35 0.35c6.78,40.4 1.01,79.13 -16.97,116.15 -18.01,36.68 -44.84,64.85 -80.83,84.56zm636.76 -349.13c-12.23,202.76 -293.75,234.68 -443.18,167.44 -3.75,-217.69 -141.29,-399.38 -295.14,-537.26 127.7,-216.01 507.4,-312.8 647.65,-61.47 9.84,14.25 18.01,28.86 24.79,44.47 45.86,124.99 67.93,253.7 66.23,386.82l-0.35 0zm262.53 77.43c-70.3,-20.7 -124.29,-62.14 -162.33,-124.96 -2.05,-121.24 -21.73,-239.76 -58.76,-355.25 74.37,-460.84 658.5,-171.51 734.57,153.53 -32.26,19.33 -64.18,38.35 -97.11,55.35 -2.04,-92.38 -13.93,-188.16 -56.04,-271.01 83.89,257.42 -22.08,663.6 -360.33,542.34zm788.57 233.32c-99.51,-55.35 -323.31,-225.5 -434.7,-248.24 47.55,-66.58 56.73,-138.58 61.47,-212.61 157.91,-37.02 309.39,-175.57 475.79,-138.89 272.37,111.71 209.22,522.31 -10.51,659.85l-92.05 -60.11zm217.36 143.66c-33.62,-26.49 -70.99,-47.53 -105.28,-70.97 34.29,-21.41 65.19,-47.21 92.72,-77.45 27.16,-29.87 49.58,-63.15 67.56,-99.83 18.01,-36.35 30.25,-74.39 37.37,-114.45 7.13,-40.08 8.49,-80.17 4.42,-120.57 59.77,168.1 9.84,355.22 -69.29,508.75 -8.48,-9.18 -17.66,-17.66 -27.16,-25.48l-0.34 0zm363.04 2630.98c-79.48,899.96 -1038.88,386.47 -703.66,-295.14 172.86,164.73 504.65,303.28 710.44,117.86 3.06,59.08 0.69,118.52 -6.78,177.28zm211.25 -896.93c-68.95,223.14 -153.51,470.72 -304.29,649.01 -737.66,166.4 -719.65,-611.31 -262.53,-984.54 162.33,138.89 419.09,159.96 603.84,49.92 -4.42,96.1 -16.65,191.22 -37.02,285.61zm-79.48 -1990.12c298.51,306.68 276.44,681.27 184.75,1068.76 -40.4,191.53 15.62,473.77 -209.89,555.95 -464.91,137.55 -695.17,-349.47 -414.32,-701.98 113.44,-168.1 116.5,-389.53 21.73,-571.57 96.79,-132.44 146.72,-280.86 149.11,-445.23 77.43,28.19 156.88,46.2 239.07,53.33 10.19,13.56 20.05,27.15 29.55,40.74zm0 0z"/>
   <path class="fil0" d="M6652.08 5294.66c364.05,5.11 725.76,-138.55 1086.41,-47.53 -463.9,-201.4 -974.01,115.46 -1445.04,-27.85 106.29,63.84 237.04,73.36 358.63,75.38zm0 0z"/>
   <path class="fil0" d="M7652.58 5412.52c-443.53,-43.81 -891.82,-35.32 -1328.57,59.77 506.7,-53.33 1017.15,4.76 1518.08,-63.17 -63.17,6.11 -126.34,7.12 -189.51,3.4zm0 0z"/>
   <path class="fil0" d="M7480.38 2395.06c-17.98,-105.96 -119.53,-203.08 -230.24,-162.33 140.92,-30.56 231.62,139.24 204.78,257.08 -215.31,203.77 -459.83,-117.17 -204.78,-257.08 -127.03,16.65 -155.2,201.06 -100.19,294.45 99.16,114.45 413.31,54.68 330.43,-132.12zm0 0z"/>
   <path class="fil0" d="M8040.06 2498.32c152.84,-79.13 49.93,-364.08 -109.69,-360.33 163.69,12.55 238.08,354.21 28.2,339.61 -317.19,52.98 -305.33,-317.88 -28.2,-339.96 -392.91,32.93 -272.37,485.32 109.69,360.68zm0 0z"/>
   <path class="fil0" d="M6963.84 2470.79c-60.78,-75.04 -171.16,-116.13 -261.15,-73.68 168.1,-64.53 409.57,207.49 173.19,282.9 -182.02,112.06 -374.94,-193.24 -173.19,-282.9 -171.18,37.69 -111.07,306.65 38.36,332.8 147.73,35 363.73,-111.71 222.79,-259.12zm0 0z"/>
  </g>
 </g>
</svg>
