<?xml version="1.0" encoding="UTF-8"?>
<!DOCTYPE svg PUBLIC "-//W3C//DTD SVG 1.1//EN" "http://www.w3.org/Graphics/SVG/1.1/DTD/svg11.dtd">
<!-- Creator: CorelDRAW -->
<svg xmlns="http://www.w3.org/2000/svg" xml:space="preserve" width="100mm" height="100mm" version="1.1" style="shape-rendering:geometricPrecision; text-rendering:geometricPrecision; image-rendering:optimizeQuality; fill-rule:evenodd; clip-rule:evenodd"
viewBox="0 0 10000 10000"
 xmlns:xlink="http://www.w3.org/1999/xlink"
 xmlns:xodm="http://www.corel.com/coreldraw/odm/2003">
 <defs>
  <style type="text/css">
   <![CDATA[
    .fil0 {fill:white;fill-rule:nonzero}
   ]]>
  </style>
 </defs>
 <g id="Camada_x0020_1">
  <metadata id="CorelCorpID_0Corel-Layer"/>
  <g id="_2535288610848">
   <path class="fil0" d="M6906.75 3874.22c-104.96,-182.61 -286.64,-320.34 -485.37,-388.4 -279.31,-148.38 -593.39,-95.36 -874.3,17.45 -272.92,113.75 -597.13,158.1 -781.47,413.98 -112.16,127.06 -220.31,287.43 -332.2,413.7 -163.43,170.37 -347.64,322.61 -490.02,513.35 -172.49,326.2 -532.93,449.93 -868.99,541.57 282.78,-70.33 595.8,-144.78 793.33,-376.14 99.23,-146.65 213.91,-280.12 343.78,-400.39 127.07,-120.95 267.32,-239.62 372.15,-382.95 146.52,-171.69 273.46,-392.66 485.77,-488.56 326.6,-110.29 653.06,-283.84 1001.77,-298.49 220.58,31.3 461.13,109.21 633.36,255.06 249.21,185.28 246.14,431.96 -113.63,344.46 -10.51,-96.44 -106.29,-216.19 -210.44,-153.31 -43.29,-72.07 -59.55,-167.97 -24.52,-246.55 -39.02,78.19 -27.57,176.22 14.26,251.34 -13.45,6.53 -26.64,13.71 -39.43,21.17 -27.83,-145.18 -258.26,-271.58 -337.91,-98.69 -12,-14.79 -25.98,-27.04 -42.09,-37.03 -15.33,-61.4 -5.47,-125.07 -3.74,-187.94 -17.04,56.6 -30.37,116.28 -21.97,175.82 -83.38,-28.5 -186.21,22.24 -224.17,99.37 -52.62,-45.29 -132.13,-42.63 -191.41,-12.79 -21.84,-46.75 -54.74,-94.57 -103.75,-115.08 37.43,36.63 62.19,81.11 84.04,127.73 -33.7,30.23 -66.47,68.07 -74.32,114.42 -89.38,-21.04 -172.49,39.42 -206.72,119.74 -15.59,-56.34 -41.17,-107.76 -76.59,-154.38 35.42,100.17 76.18,188.08 43.41,293.43 -130.52,53.55 -267.59,98.71 -410.23,97.51 270.11,40.88 517.06,-124.67 780.92,-138.13 33.04,0.67 65.54,-3.6 97.24,-12.79 65.8,38.63 176.35,8.13 187.28,-76.58 65.26,35.82 180.34,24.51 207.38,-54.48 30.77,26.5 66.6,39.43 107.36,38.5 -63.27,98.29 -4.13,218.57 79.25,283.04 -172.49,119.21 -393.86,107.62 -579.67,196.47 -458.47,274.38 -450.07,940.49 -1082.23,1054.77 398.26,-45.28 633.48,-389.86 807.44,-714.99 30.77,73.38 73.93,149.98 63.13,230.96 -49.95,193.27 -103.22,388.13 -80.85,590.99 -199.39,269.86 -510,385.61 -827.68,449 -389.2,102.3 -764.02,255.08 -1124.58,432.37 374.15,-143.72 748.97,-283.98 1138.43,-380.95 309.16,-61 622.97,-170.62 816.5,-434.61 11.86,119.34 -37.42,233.76 -30.77,352.43 55.81,-201.39 80.59,-406.38 74.46,-615.37 16.52,-220.44 152.37,-447 -16.65,-644.27 115.08,-224.84 336.46,-337.52 577.54,-377.21 -46.62,61.8 -90.31,142.52 -71.52,222.17 17.18,-90.04 71.52,-162.24 121.47,-236.56 55.14,-15.85 108.16,-37.03 159.04,-63.66 -38.09,129.59 46.35,271.98 173.95,309.28 -102.16,-75.66 -169.69,-191.41 -153.98,-320.48 18.79,-10.92 36.76,-23.04 53.82,-36.49 16.24,11.46 35.43,24.37 56.21,23.17 -114.28,-35.42 -231.1,-304.21 -60.61,-325.66 -155.83,34.77 -7.72,302.62 90.84,153.44 -70.06,87.52 -173.29,-23.3 -128,-105.35 50.75,-83.12 189.54,36.22 128,105.35 29.84,-25.31 29.17,-70.2 6.67,-100.17 133.99,78.6 231.75,112.69 197.66,294.77 -72.06,81.52 -138.13,208.86 -41.56,299.7 -97.37,77.65 -186.88,203.26 -148.92,333.92 -119.73,57.01 -255.33,38.49 -383.87,43.82 128.8,16.52 270.26,36.1 390.4,-26.9 2.53,5.33 5.46,10.39 8.79,15.31 -49.68,82.19 -67.26,196.33 -6.52,279.85 16.78,259.86 35.03,520 105.23,771.34 -8.54,-247.75 -26.38,-498.02 -76.87,-740.7 205.79,167.29 338.99,-87.79 291.04,-276.92 65.66,-117.88 111.89,-250.54 98.57,-386.53 65.39,-90.31 42.49,-212.19 66.33,-312.36 39.16,-131.06 -19.98,-257.6 -114.55,-348.97 114.68,11.85 234.16,-90.31 185.28,-209.92zm-1534.03 320.07c-19.84,-3.05 -40.76,-8.39 -55.68,-23.04 3.74,5.33 8.13,9.86 13.32,13.72 -44.35,11.72 -87.91,25.58 -130.67,41.83 3.07,-15.06 6.27,-29.71 10.53,-43.96 26.9,-125.87 133.86,-197.67 258.4,-157.97 -16.12,0.66 -30.1,6.26 -42.22,16.92 26.51,-16.53 60.74,-11.33 88.44,-1.07 102.42,78.72 -196.73,109.49 -88.44,1.07 -121.48,98.42 168.76,120.14 116.55,3.46 92.04,106.55 -80.45,170.89 -170.23,149.04zm210.59 -35.56c3.46,-5.59 6.52,-11.45 8.92,-17.45 4.53,5.46 9.46,10.52 14.65,15.19 -7.86,1.06 -15.72,1.86 -23.57,2.26zm173.28 -1.06c-51.28,31.96 -118.41,12.65 -160.37,-26.91 40.63,-107.49 -75.79,-150.65 -162.1,-151.45 88.71,-214.97 336.46,-82.98 360.7,99.5l0.13 0.14c2.66,15.84 0.4,31.03 -6.65,45.55 -7.07,14.39 -17.59,25.44 -31.71,33.17zm249.75 -136.93c-4.8,79.52 -115.22,92.04 -173.82,65.66 -1.47,-85.37 -55.42,-156.63 -115.76,-210.71 50.09,-84.72 199.01,-122.68 254.01,-24.11 3.86,5.59 7.07,11.32 9.73,17.44 17.98,49.02 26.64,99.5 25.97,151.72l-0.13 0zm102.96 30.36c-27.57,-8.11 -48.75,-24.37 -63.67,-49.01 -0.8,-47.55 -8.52,-94.03 -23.04,-139.33 29.17,-180.74 258.26,-67.26 288.1,60.22 -12.65,7.58 -25.17,15.04 -38.09,21.71 -0.8,-36.23 -5.46,-73.8 -21.98,-106.3 32.9,100.97 -8.66,260.27 -141.32,212.71zm309.28 91.51c-39.03,-21.71 -126.8,-88.44 -170.49,-97.36 18.65,-26.11 22.25,-54.35 24.11,-83.38 61.93,-14.52 121.34,-68.86 186.6,-54.48 106.83,43.82 82.06,204.85 -4.12,258.8l-36.1 -23.58zm85.25 56.35c-13.19,-10.39 -27.85,-18.65 -41.29,-27.84 13.44,-8.39 25.57,-18.51 36.36,-30.37 10.65,-11.72 19.45,-24.77 26.5,-39.16 7.06,-14.26 11.86,-29.17 14.66,-44.89 2.79,-15.72 3.33,-31.44 1.73,-47.28 23.44,65.93 3.86,139.32 -27.18,199.53 -3.32,-3.6 -6.92,-6.93 -10.65,-9.99l-0.13 0zm142.38 1031.87c-31.17,352.97 -407.45,151.58 -275.98,-115.75 67.8,64.61 197.93,118.95 278.64,46.23 1.2,23.17 0.27,46.48 -2.66,69.52zm82.85 -351.77c-27.04,87.51 -60.2,184.61 -119.34,254.54 -289.31,65.26 -282.25,-239.76 -102.96,-386.14 63.66,54.47 164.36,62.74 236.83,19.58 -1.74,37.69 -6.53,74.99 -14.53,112.02zm-31.17 -780.53c117.08,120.28 108.42,267.19 72.46,419.16 -15.84,75.12 6.13,185.82 -82.31,218.05 -182.35,53.95 -272.66,-137.06 -162.5,-275.32 44.49,-65.93 45.69,-152.77 8.52,-224.17 37.96,-51.94 57.54,-110.15 58.48,-174.62 30.37,11.06 61.53,18.12 93.76,20.91 4,5.33 7.87,10.66 11.59,15.99zm0 0z"/>
   <path class="fil0" d="M5645.64 5117.88c142.78,2 284.65,-54.34 426.09,-18.65 -181.94,-78.99 -382,45.29 -566.75,-10.92 41.69,25.04 92.97,28.77 140.66,29.57zm0 0z"/>
   <path class="fil0" d="M6038.04 5164.1c-173.96,-17.18 -349.78,-13.85 -521.07,23.44 198.73,-20.91 398.93,1.87 595.4,-24.77 -24.78,2.4 -49.56,2.79 -74.33,1.33zm0 0z"/>
   <path class="fil0" d="M5970.5 3980.65c-7.05,-41.57 -46.88,-79.65 -90.3,-63.67 55.27,-11.99 90.84,54.61 80.32,100.82 -84.45,79.92 -180.35,-45.95 -80.32,-100.82 -49.82,6.53 -60.87,78.85 -39.29,115.48 38.89,44.89 162.1,21.45 129.59,-51.81zm0 0z"/>
   <path class="fil0" d="M6190.01 4021.14c59.94,-31.03 19.58,-142.79 -43.02,-141.32 64.2,4.92 93.38,138.92 11.06,133.2 -124.4,20.78 -119.75,-124.68 -11.06,-133.34 -154.1,12.92 -106.82,190.35 43.02,141.46zm0 0z"/>
   <path class="fil0" d="M5767.91 4010.35c-23.83,-29.43 -67.13,-45.55 -102.42,-28.9 65.93,-25.31 160.63,81.38 67.92,110.95 -71.38,43.95 -147.05,-75.79 -67.92,-110.95 -67.14,14.78 -43.56,120.27 15.04,130.52 57.94,13.73 142.66,-43.81 87.38,-101.62zm0 0z"/>
  </g>
 </g>
</svg>
